<?xml version="1.0" standalone="no"?>
<!DOCTYPE svg PUBLIC "-//W3C//DTD SVG 20010904//EN"
 "http://www.w3.org/TR/2001/REC-SVG-20010904/DTD/svg10.dtd">
<svg version="1.0" xmlns="http://www.w3.org/2000/svg"
 width="260.000000pt" height="260.000000pt" viewBox="0 0 260.000000 260.000000"
 preserveAspectRatio="xMidYMid meet">
<metadata>
Created by potrace 1.14, written by Peter Selinger 2001-2017
</metadata>
<g transform="translate(0.000000,260.000000) scale(0.100000,-0.100000)"
fill="#000000" stroke="none">
<path d="M2061 2262 c-52 -26 -71 -60 -105 -189 l-31 -118 -92 -7 c-294 -23
-522 -174 -653 -433 -15 -29 -17 -30 -100 -33 -254 -9 -464 -137 -613 -373
l-36 -57 -123 31 c-106 26 -129 28 -163 18 -88 -24 -139 -112 -116 -199 22
-83 56 -107 201 -143 52 -12 98 -26 103 -29 4 -4 -4 -51 -19 -105 -31 -116
-29 -169 9 -219 68 -88 191 -86 259 5 11 14 28 61 39 105 11 43 24 95 30 115
l9 36 98 6 c113 6 234 42 330 98 77 45 229 199 272 275 l35 61 94 7 c159 11
262 44 385 123 94 61 162 132 226 236 29 48 58 86 64 84 6 -2 63 -17 128 -32
127 -31 165 -29 220 15 59 46 76 150 35 211 -35 52 -78 75 -193 103 -59 14
-108 27 -110 28 -2 2 8 46 21 98 41 161 29 229 -50 275 -50 30 -106 32 -154 7z
m-221 -639 c0 -25 -61 -258 -70 -267 -13 -13 -280 55 -280 72 0 12 55 240 65
268 6 18 285 -54 285 -73z m-897 -404 c67 -17 125 -33 129 -37 7 -7 -50 -251
-62 -265 -6 -6 -256 49 -269 59 -4 3 47 214 60 252 5 12 11 22 14 22 4 0 61
-14 128 -31z"/>
</g>
</svg>
